<mxfile host="app.diagrams.net" modified="2023-05-22T18:25:26.655Z" agent="Mozilla/5.0 (Windows NT 10.0; Win64; x64) AppleWebKit/537.36 (KHTML, like Gecko) Chrome/112.0.0.0 Safari/537.36 OPR/98.0.0.0 (Edition std-1)" etag="icMfizSqICVc9uIFouhW" version="21.3.2" type="device">
  <diagram id="R2lEEEUBdFMjLlhIrx00" name="Page-1">
    <mxGraphModel dx="2737" dy="2004" grid="1" gridSize="10" guides="1" tooltips="1" connect="1" arrows="1" fold="1" page="1" pageScale="1" pageWidth="850" pageHeight="1100" math="0" shadow="0" extFonts="Permanent Marker^https://fonts.googleapis.com/css?family=Permanent+Marker">
      <root>
        <mxCell id="0" />
        <mxCell id="1" parent="0" />
        <mxCell id="uIdBbjLxFniSCo1o9cFx-1" value="WINE" style="rounded=0;whiteSpace=wrap;html=1;" vertex="1" parent="1">
          <mxGeometry x="20" y="70" width="120" height="40" as="geometry" />
        </mxCell>
        <mxCell id="uIdBbjLxFniSCo1o9cFx-4" value="&lt;u&gt;wine_id&lt;/u&gt;" style="ellipse;whiteSpace=wrap;html=1;" vertex="1" parent="1">
          <mxGeometry x="10" y="-70" width="70" height="40" as="geometry" />
        </mxCell>
        <mxCell id="uIdBbjLxFniSCo1o9cFx-5" value="" style="endArrow=none;html=1;rounded=0;exitX=0.5;exitY=0;exitDx=0;exitDy=0;entryX=0.5;entryY=1;entryDx=0;entryDy=0;" edge="1" parent="1" target="uIdBbjLxFniSCo1o9cFx-4" source="uIdBbjLxFniSCo1o9cFx-1">
          <mxGeometry width="50" height="50" relative="1" as="geometry">
            <mxPoint x="100" y="70" as="sourcePoint" />
            <mxPoint x="80" y="-20" as="targetPoint" />
          </mxGeometry>
        </mxCell>
        <mxCell id="uIdBbjLxFniSCo1o9cFx-6" value="type" style="ellipse;whiteSpace=wrap;html=1;" vertex="1" parent="1">
          <mxGeometry x="90" y="-50" width="70" height="40" as="geometry" />
        </mxCell>
        <mxCell id="uIdBbjLxFniSCo1o9cFx-7" value="" style="endArrow=none;html=1;rounded=0;entryX=0;entryY=1;entryDx=0;entryDy=0;exitX=0.5;exitY=0;exitDx=0;exitDy=0;" edge="1" parent="1" target="uIdBbjLxFniSCo1o9cFx-6" source="uIdBbjLxFniSCo1o9cFx-1">
          <mxGeometry width="50" height="50" relative="1" as="geometry">
            <mxPoint x="110" y="80" as="sourcePoint" />
            <mxPoint x="150.25126265847098" y="4.142135623730837" as="targetPoint" />
          </mxGeometry>
        </mxCell>
        <mxCell id="uIdBbjLxFniSCo1o9cFx-8" value="name" style="ellipse;whiteSpace=wrap;html=1;" vertex="1" parent="1">
          <mxGeometry x="-200" y="110" width="70" height="40" as="geometry" />
        </mxCell>
        <mxCell id="uIdBbjLxFniSCo1o9cFx-9" value="" style="endArrow=none;html=1;rounded=0;exitX=0;exitY=0.5;exitDx=0;exitDy=0;entryX=1;entryY=0.5;entryDx=0;entryDy=0;" edge="1" parent="1" target="uIdBbjLxFniSCo1o9cFx-8" source="uIdBbjLxFniSCo1o9cFx-1">
          <mxGeometry width="50" height="50" relative="1" as="geometry">
            <mxPoint x="40" y="90" as="sourcePoint" />
            <mxPoint x="-50" y="110" as="targetPoint" />
          </mxGeometry>
        </mxCell>
        <mxCell id="uIdBbjLxFniSCo1o9cFx-10" value="producer" style="ellipse;whiteSpace=wrap;html=1;" vertex="1" parent="1">
          <mxGeometry x="-80" width="70" height="40" as="geometry" />
        </mxCell>
        <mxCell id="uIdBbjLxFniSCo1o9cFx-12" value="rating" style="ellipse;whiteSpace=wrap;html=1;" vertex="1" parent="1">
          <mxGeometry x="-70" y="-55" width="70" height="40" as="geometry" />
        </mxCell>
        <mxCell id="uIdBbjLxFniSCo1o9cFx-13" value="" style="endArrow=none;html=1;rounded=0;entryX=1;entryY=1;entryDx=0;entryDy=0;exitX=0.5;exitY=0;exitDx=0;exitDy=0;" edge="1" parent="1" target="uIdBbjLxFniSCo1o9cFx-12" source="uIdBbjLxFniSCo1o9cFx-1">
          <mxGeometry width="50" height="50" relative="1" as="geometry">
            <mxPoint x="140" y="110" as="sourcePoint" />
            <mxPoint x="390" y="360" as="targetPoint" />
          </mxGeometry>
        </mxCell>
        <mxCell id="uIdBbjLxFniSCo1o9cFx-15" value="" style="endArrow=none;html=1;rounded=0;entryX=1;entryY=1;entryDx=0;entryDy=0;exitX=0;exitY=0.5;exitDx=0;exitDy=0;" edge="1" parent="1" source="uIdBbjLxFniSCo1o9cFx-1" target="uIdBbjLxFniSCo1o9cFx-10">
          <mxGeometry width="50" height="50" relative="1" as="geometry">
            <mxPoint x="120" y="90" as="sourcePoint" />
            <mxPoint x="235" y="10" as="targetPoint" />
          </mxGeometry>
        </mxCell>
        <mxCell id="uIdBbjLxFniSCo1o9cFx-17" value="USER" style="rounded=0;whiteSpace=wrap;html=1;" vertex="1" parent="1">
          <mxGeometry x="905" y="130" width="120" height="40" as="geometry" />
        </mxCell>
        <mxCell id="uIdBbjLxFniSCo1o9cFx-18" value="&lt;u&gt;user_id&lt;/u&gt;" style="ellipse;whiteSpace=wrap;html=1;" vertex="1" parent="1">
          <mxGeometry x="990" y="30" width="70" height="40" as="geometry" />
        </mxCell>
        <mxCell id="uIdBbjLxFniSCo1o9cFx-19" value="" style="endArrow=none;html=1;rounded=0;exitX=0.5;exitY=0;exitDx=0;exitDy=0;entryX=0;entryY=1;entryDx=0;entryDy=0;" edge="1" parent="1" source="uIdBbjLxFniSCo1o9cFx-17" target="uIdBbjLxFniSCo1o9cFx-18">
          <mxGeometry width="50" height="50" relative="1" as="geometry">
            <mxPoint x="985" y="130" as="sourcePoint" />
            <mxPoint x="965" y="40" as="targetPoint" />
          </mxGeometry>
        </mxCell>
        <mxCell id="uIdBbjLxFniSCo1o9cFx-20" value="password" style="ellipse;whiteSpace=wrap;html=1;" vertex="1" parent="1">
          <mxGeometry x="1050" y="70" width="70" height="40" as="geometry" />
        </mxCell>
        <mxCell id="uIdBbjLxFniSCo1o9cFx-21" value="" style="endArrow=none;html=1;rounded=0;entryX=0;entryY=1;entryDx=0;entryDy=0;exitX=0.5;exitY=0;exitDx=0;exitDy=0;" edge="1" parent="1" source="uIdBbjLxFniSCo1o9cFx-17" target="uIdBbjLxFniSCo1o9cFx-20">
          <mxGeometry width="50" height="50" relative="1" as="geometry">
            <mxPoint x="995" y="140" as="sourcePoint" />
            <mxPoint x="1245" y="390" as="targetPoint" />
          </mxGeometry>
        </mxCell>
        <mxCell id="uIdBbjLxFniSCo1o9cFx-22" value="name" style="ellipse;whiteSpace=wrap;html=1;" vertex="1" parent="1">
          <mxGeometry x="1085" y="130" width="70" height="40" as="geometry" />
        </mxCell>
        <mxCell id="uIdBbjLxFniSCo1o9cFx-23" value="" style="endArrow=none;html=1;rounded=0;exitX=1;exitY=0.5;exitDx=0;exitDy=0;entryX=0;entryY=0.5;entryDx=0;entryDy=0;" edge="1" parent="1" source="uIdBbjLxFniSCo1o9cFx-17" target="uIdBbjLxFniSCo1o9cFx-22">
          <mxGeometry width="50" height="50" relative="1" as="geometry">
            <mxPoint x="925" y="150" as="sourcePoint" />
            <mxPoint x="835" y="170" as="targetPoint" />
          </mxGeometry>
        </mxCell>
        <mxCell id="uIdBbjLxFniSCo1o9cFx-25" value="email" style="ellipse;whiteSpace=wrap;html=1;" vertex="1" parent="1">
          <mxGeometry x="905" y="20" width="70" height="40" as="geometry" />
        </mxCell>
        <mxCell id="uIdBbjLxFniSCo1o9cFx-26" value="" style="endArrow=none;html=1;rounded=0;entryX=0.5;entryY=1;entryDx=0;entryDy=0;exitX=0.5;exitY=0;exitDx=0;exitDy=0;" edge="1" parent="1" source="uIdBbjLxFniSCo1o9cFx-17" target="uIdBbjLxFniSCo1o9cFx-25">
          <mxGeometry width="50" height="50" relative="1" as="geometry">
            <mxPoint x="1025" y="170" as="sourcePoint" />
            <mxPoint x="1275" y="420" as="targetPoint" />
          </mxGeometry>
        </mxCell>
        <mxCell id="uIdBbjLxFniSCo1o9cFx-28" value="write" style="rhombus;whiteSpace=wrap;html=1;rotation=15;" vertex="1" parent="1">
          <mxGeometry x="720" y="20" width="80" height="80" as="geometry" />
        </mxCell>
        <mxCell id="uIdBbjLxFniSCo1o9cFx-30" value="1/N" style="endArrow=none;html=1;rounded=0;exitX=1;exitY=0.5;exitDx=0;exitDy=0;entryX=0;entryY=0.5;entryDx=0;entryDy=0;" edge="1" parent="1" source="uIdBbjLxFniSCo1o9cFx-107" target="uIdBbjLxFniSCo1o9cFx-76">
          <mxGeometry x="0.7758" y="14" width="50" height="50" relative="1" as="geometry">
            <mxPoint x="240" y="250" as="sourcePoint" />
            <mxPoint x="480" y="190" as="targetPoint" />
            <mxPoint x="1" as="offset" />
          </mxGeometry>
        </mxCell>
        <mxCell id="uIdBbjLxFniSCo1o9cFx-36" value="has" style="rhombus;whiteSpace=wrap;html=1;rotation=45;" vertex="1" parent="1">
          <mxGeometry x="210" y="198.66000000000003" width="80" height="80" as="geometry" />
        </mxCell>
        <mxCell id="uIdBbjLxFniSCo1o9cFx-41" value="1" style="endArrow=none;html=1;rounded=0;exitX=1;exitY=0.5;exitDx=0;exitDy=0;entryX=0;entryY=0.5;entryDx=0;entryDy=0;" edge="1" parent="1" source="uIdBbjLxFniSCo1o9cFx-36" target="uIdBbjLxFniSCo1o9cFx-43">
          <mxGeometry x="0.7778" y="10" width="50" height="50" relative="1" as="geometry">
            <mxPoint x="350" y="59.480000000000004" as="sourcePoint" />
            <mxPoint x="430" y="269.48" as="targetPoint" />
            <mxPoint as="offset" />
          </mxGeometry>
        </mxCell>
        <mxCell id="uIdBbjLxFniSCo1o9cFx-42" value="N" style="endArrow=none;html=1;rounded=0;entryX=0;entryY=0.5;entryDx=0;entryDy=0;exitX=0.5;exitY=1;exitDx=0;exitDy=0;" edge="1" parent="1" source="uIdBbjLxFniSCo1o9cFx-1" target="uIdBbjLxFniSCo1o9cFx-36">
          <mxGeometry x="-0.5575" y="15" width="50" height="50" relative="1" as="geometry">
            <mxPoint x="320" y="160" as="sourcePoint" />
            <mxPoint x="500" y="160" as="targetPoint" />
            <mxPoint as="offset" />
          </mxGeometry>
        </mxCell>
        <mxCell id="uIdBbjLxFniSCo1o9cFx-43" value="WINERY" style="rounded=0;whiteSpace=wrap;html=1;" vertex="1" parent="1">
          <mxGeometry x="470" y="369.48" width="120" height="40" as="geometry" />
        </mxCell>
        <mxCell id="uIdBbjLxFniSCo1o9cFx-44" value="&lt;u&gt;winery_id&lt;/u&gt;" style="ellipse;whiteSpace=wrap;html=1;" vertex="1" parent="1">
          <mxGeometry x="580" y="299.48" width="70" height="40" as="geometry" />
        </mxCell>
        <mxCell id="uIdBbjLxFniSCo1o9cFx-45" value="" style="endArrow=none;html=1;rounded=0;exitX=0.5;exitY=0;exitDx=0;exitDy=0;entryX=0;entryY=1;entryDx=0;entryDy=0;" edge="1" parent="1" source="uIdBbjLxFniSCo1o9cFx-43" target="uIdBbjLxFniSCo1o9cFx-44">
          <mxGeometry width="50" height="50" relative="1" as="geometry">
            <mxPoint x="550" y="369.48" as="sourcePoint" />
            <mxPoint x="530" y="279.48" as="targetPoint" />
          </mxGeometry>
        </mxCell>
        <mxCell id="uIdBbjLxFniSCo1o9cFx-46" value="location" style="ellipse;whiteSpace=wrap;html=1;" vertex="1" parent="1">
          <mxGeometry x="492.5" y="275.40999999999997" width="70" height="40" as="geometry" />
        </mxCell>
        <mxCell id="uIdBbjLxFniSCo1o9cFx-47" value="" style="endArrow=none;html=1;rounded=0;entryX=0.5;entryY=1;entryDx=0;entryDy=0;exitX=0.5;exitY=0;exitDx=0;exitDy=0;" edge="1" parent="1" source="uIdBbjLxFniSCo1o9cFx-43" target="uIdBbjLxFniSCo1o9cFx-46">
          <mxGeometry width="50" height="50" relative="1" as="geometry">
            <mxPoint x="560" y="379.48" as="sourcePoint" />
            <mxPoint x="810" y="629.48" as="targetPoint" />
          </mxGeometry>
        </mxCell>
        <mxCell id="uIdBbjLxFniSCo1o9cFx-48" value="wine_id" style="ellipse;whiteSpace=wrap;html=1;" vertex="1" parent="1">
          <mxGeometry x="410" y="449.48" width="70" height="40" as="geometry" />
        </mxCell>
        <mxCell id="uIdBbjLxFniSCo1o9cFx-49" value="" style="endArrow=none;html=1;rounded=0;exitX=0.5;exitY=1;exitDx=0;exitDy=0;entryX=1;entryY=0;entryDx=0;entryDy=0;" edge="1" parent="1" source="uIdBbjLxFniSCo1o9cFx-43" target="uIdBbjLxFniSCo1o9cFx-48">
          <mxGeometry width="50" height="50" relative="1" as="geometry">
            <mxPoint x="490" y="389.48" as="sourcePoint" />
            <mxPoint x="400" y="409.48" as="targetPoint" />
          </mxGeometry>
        </mxCell>
        <mxCell id="uIdBbjLxFniSCo1o9cFx-50" value="verified" style="ellipse;whiteSpace=wrap;html=1;" vertex="1" parent="1">
          <mxGeometry x="580" y="449.48" width="70" height="40" as="geometry" />
        </mxCell>
        <mxCell id="uIdBbjLxFniSCo1o9cFx-51" value="name" style="ellipse;whiteSpace=wrap;html=1;" vertex="1" parent="1">
          <mxGeometry x="410" y="299.48" width="70" height="40" as="geometry" />
        </mxCell>
        <mxCell id="uIdBbjLxFniSCo1o9cFx-52" value="" style="endArrow=none;html=1;rounded=0;entryX=1;entryY=1;entryDx=0;entryDy=0;exitX=0.5;exitY=0;exitDx=0;exitDy=0;" edge="1" parent="1" source="uIdBbjLxFniSCo1o9cFx-43" target="uIdBbjLxFniSCo1o9cFx-51">
          <mxGeometry width="50" height="50" relative="1" as="geometry">
            <mxPoint x="590" y="409.48" as="sourcePoint" />
            <mxPoint x="840" y="659.48" as="targetPoint" />
          </mxGeometry>
        </mxCell>
        <mxCell id="uIdBbjLxFniSCo1o9cFx-53" value="" style="endArrow=none;html=1;rounded=0;entryX=0;entryY=0;entryDx=0;entryDy=0;exitX=0.5;exitY=1;exitDx=0;exitDy=0;" edge="1" parent="1" source="uIdBbjLxFniSCo1o9cFx-43" target="uIdBbjLxFniSCo1o9cFx-50">
          <mxGeometry width="50" height="50" relative="1" as="geometry">
            <mxPoint x="570" y="389.48" as="sourcePoint" />
            <mxPoint x="685" y="309.48" as="targetPoint" />
          </mxGeometry>
        </mxCell>
        <mxCell id="uIdBbjLxFniSCo1o9cFx-70" value="N" style="endArrow=none;html=1;rounded=0;exitX=1;exitY=0.5;exitDx=0;exitDy=0;entryX=0;entryY=0.5;entryDx=0;entryDy=0;" edge="1" parent="1" source="uIdBbjLxFniSCo1o9cFx-43" target="uIdBbjLxFniSCo1o9cFx-133">
          <mxGeometry x="-0.7778" y="10" width="50" height="50" relative="1" as="geometry">
            <mxPoint x="300" y="399.48" as="sourcePoint" />
            <mxPoint x="731.8957287525382" y="287.94427124746153" as="targetPoint" />
            <mxPoint as="offset" />
          </mxGeometry>
        </mxCell>
        <mxCell id="uIdBbjLxFniSCo1o9cFx-71" value="1" style="endArrow=none;html=1;rounded=0;exitX=1;exitY=0.5;exitDx=0;exitDy=0;entryX=0.5;entryY=1;entryDx=0;entryDy=0;" edge="1" parent="1" source="uIdBbjLxFniSCo1o9cFx-133" target="uIdBbjLxFniSCo1o9cFx-17">
          <mxGeometry x="0.6301" y="12" width="50" height="50" relative="1" as="geometry">
            <mxPoint x="718.4642712474615" y="241.37572875253818" as="sourcePoint" />
            <mxPoint x="410" y="390" as="targetPoint" />
            <mxPoint as="offset" />
          </mxGeometry>
        </mxCell>
        <mxCell id="uIdBbjLxFniSCo1o9cFx-72" value="last_name" style="ellipse;whiteSpace=wrap;html=1;" vertex="1" parent="1">
          <mxGeometry x="1175" y="180" width="70" height="40" as="geometry" />
        </mxCell>
        <mxCell id="uIdBbjLxFniSCo1o9cFx-73" value="first_name" style="ellipse;whiteSpace=wrap;html=1;" vertex="1" parent="1">
          <mxGeometry x="1175" y="80" width="70" height="40" as="geometry" />
        </mxCell>
        <mxCell id="uIdBbjLxFniSCo1o9cFx-74" value="" style="endArrow=none;html=1;rounded=0;entryX=0;entryY=1;entryDx=0;entryDy=0;exitX=1;exitY=0;exitDx=0;exitDy=0;" edge="1" parent="1" source="uIdBbjLxFniSCo1o9cFx-22" target="uIdBbjLxFniSCo1o9cFx-73">
          <mxGeometry width="50" height="50" relative="1" as="geometry">
            <mxPoint x="975" y="140" as="sourcePoint" />
            <mxPoint x="1045" y="74" as="targetPoint" />
          </mxGeometry>
        </mxCell>
        <mxCell id="uIdBbjLxFniSCo1o9cFx-75" value="" style="endArrow=none;html=1;rounded=0;entryX=0;entryY=0;entryDx=0;entryDy=0;exitX=1;exitY=1;exitDx=0;exitDy=0;" edge="1" parent="1" source="uIdBbjLxFniSCo1o9cFx-22" target="uIdBbjLxFniSCo1o9cFx-72">
          <mxGeometry width="50" height="50" relative="1" as="geometry">
            <mxPoint x="985" y="150" as="sourcePoint" />
            <mxPoint x="1055" y="84" as="targetPoint" />
          </mxGeometry>
        </mxCell>
        <mxCell id="uIdBbjLxFniSCo1o9cFx-76" value="REVIEW" style="rounded=0;whiteSpace=wrap;html=1;" vertex="1" parent="1">
          <mxGeometry x="470" y="10" width="120" height="40" as="geometry" />
        </mxCell>
        <mxCell id="uIdBbjLxFniSCo1o9cFx-77" value="&lt;u&gt;write_id&lt;/u&gt;" style="ellipse;whiteSpace=wrap;html=1;" vertex="1" parent="1">
          <mxGeometry x="495" y="-110" width="70" height="40" as="geometry" />
        </mxCell>
        <mxCell id="uIdBbjLxFniSCo1o9cFx-78" value="" style="endArrow=none;html=1;rounded=0;exitX=0.5;exitY=0;exitDx=0;exitDy=0;entryX=0.5;entryY=1;entryDx=0;entryDy=0;" edge="1" parent="1" source="uIdBbjLxFniSCo1o9cFx-76" target="uIdBbjLxFniSCo1o9cFx-77">
          <mxGeometry width="50" height="50" relative="1" as="geometry">
            <mxPoint x="550" y="10" as="sourcePoint" />
            <mxPoint x="530" y="-80" as="targetPoint" />
          </mxGeometry>
        </mxCell>
        <mxCell id="uIdBbjLxFniSCo1o9cFx-79" value="wine_id" style="ellipse;whiteSpace=wrap;html=1;" vertex="1" parent="1">
          <mxGeometry x="590" y="-90" width="70" height="40" as="geometry" />
        </mxCell>
        <mxCell id="uIdBbjLxFniSCo1o9cFx-80" value="" style="endArrow=none;html=1;rounded=0;entryX=0;entryY=1;entryDx=0;entryDy=0;exitX=0.5;exitY=0;exitDx=0;exitDy=0;" edge="1" parent="1" source="uIdBbjLxFniSCo1o9cFx-76" target="uIdBbjLxFniSCo1o9cFx-79">
          <mxGeometry width="50" height="50" relative="1" as="geometry">
            <mxPoint x="560" y="20" as="sourcePoint" />
            <mxPoint x="810" y="270" as="targetPoint" />
          </mxGeometry>
        </mxCell>
        <mxCell id="uIdBbjLxFniSCo1o9cFx-82" value="1" style="endArrow=none;html=1;rounded=0;exitX=1;exitY=0.5;exitDx=0;exitDy=0;entryX=0;entryY=0.5;entryDx=0;entryDy=0;" edge="1" parent="1" source="uIdBbjLxFniSCo1o9cFx-28" target="uIdBbjLxFniSCo1o9cFx-17">
          <mxGeometry x="0.7045" y="12" width="50" height="50" relative="1" as="geometry">
            <mxPoint x="450" y="70" as="sourcePoint" />
            <mxPoint x="610" y="70" as="targetPoint" />
            <mxPoint as="offset" />
          </mxGeometry>
        </mxCell>
        <mxCell id="uIdBbjLxFniSCo1o9cFx-83" value="user_id" style="ellipse;whiteSpace=wrap;html=1;" vertex="1" parent="1">
          <mxGeometry x="400" y="-90" width="70" height="40" as="geometry" />
        </mxCell>
        <mxCell id="uIdBbjLxFniSCo1o9cFx-84" value="" style="endArrow=none;html=1;rounded=0;entryX=1;entryY=1;entryDx=0;entryDy=0;exitX=0.5;exitY=0;exitDx=0;exitDy=0;" edge="1" parent="1" source="uIdBbjLxFniSCo1o9cFx-76" target="uIdBbjLxFniSCo1o9cFx-83">
          <mxGeometry width="50" height="50" relative="1" as="geometry">
            <mxPoint x="590" y="50" as="sourcePoint" />
            <mxPoint x="840" y="300" as="targetPoint" />
          </mxGeometry>
        </mxCell>
        <mxCell id="uIdBbjLxFniSCo1o9cFx-102" value="N" style="endArrow=none;html=1;rounded=0;exitX=1;exitY=0.5;exitDx=0;exitDy=0;entryX=0;entryY=0.5;entryDx=0;entryDy=0;" edge="1" parent="1" source="uIdBbjLxFniSCo1o9cFx-76" target="uIdBbjLxFniSCo1o9cFx-28">
          <mxGeometry x="-0.6538" y="14" width="50" height="50" relative="1" as="geometry">
            <mxPoint x="780" y="210" as="sourcePoint" />
            <mxPoint x="925" y="260" as="targetPoint" />
            <mxPoint as="offset" />
          </mxGeometry>
        </mxCell>
        <mxCell id="uIdBbjLxFniSCo1o9cFx-107" value="rate" style="rhombus;whiteSpace=wrap;html=1;rotation=-15;" vertex="1" parent="1">
          <mxGeometry x="280" y="20" width="80" height="80" as="geometry" />
        </mxCell>
        <mxCell id="uIdBbjLxFniSCo1o9cFx-112" value="1" style="endArrow=none;html=1;rounded=0;exitX=1;exitY=0.5;exitDx=0;exitDy=0;entryX=0;entryY=0.5;entryDx=0;entryDy=0;" edge="1" parent="1" target="uIdBbjLxFniSCo1o9cFx-107" source="uIdBbjLxFniSCo1o9cFx-1">
          <mxGeometry x="-0.6538" y="14" width="50" height="50" relative="1" as="geometry">
            <mxPoint x="240" y="-140" as="sourcePoint" />
            <mxPoint x="545" y="90" as="targetPoint" />
            <mxPoint as="offset" />
          </mxGeometry>
        </mxCell>
        <mxCell id="uIdBbjLxFniSCo1o9cFx-117" value="IS&lt;br&gt;" style="triangle;whiteSpace=wrap;html=1;rotation=-100;" vertex="1" parent="1">
          <mxGeometry x="62.31999999999999" y="194.07" width="60" height="80" as="geometry" />
        </mxCell>
        <mxCell id="uIdBbjLxFniSCo1o9cFx-118" value="" style="endArrow=none;html=1;rounded=0;exitX=0.25;exitY=1;exitDx=0;exitDy=0;entryX=1;entryY=0.5;entryDx=0;entryDy=0;" edge="1" parent="1" source="uIdBbjLxFniSCo1o9cFx-1" target="uIdBbjLxFniSCo1o9cFx-117">
          <mxGeometry width="50" height="50" relative="1" as="geometry">
            <mxPoint x="30" y="120" as="sourcePoint" />
            <mxPoint x="20" y="180" as="targetPoint" />
          </mxGeometry>
        </mxCell>
        <mxCell id="uIdBbjLxFniSCo1o9cFx-120" value="" style="endArrow=none;html=1;rounded=0;exitX=0;exitY=0.5;exitDx=0;exitDy=0;entryX=0.5;entryY=0;entryDx=0;entryDy=0;" edge="1" parent="1" source="uIdBbjLxFniSCo1o9cFx-117" target="uIdBbjLxFniSCo1o9cFx-123">
          <mxGeometry width="50" height="50" relative="1" as="geometry">
            <mxPoint x="122.32" y="135" as="sourcePoint" />
            <mxPoint x="-17.680000000000007" y="325" as="targetPoint" />
          </mxGeometry>
        </mxCell>
        <mxCell id="uIdBbjLxFniSCo1o9cFx-121" value="" style="endArrow=none;html=1;rounded=0;exitX=0;exitY=0.5;exitDx=0;exitDy=0;entryX=0.5;entryY=0;entryDx=0;entryDy=0;" edge="1" parent="1" source="uIdBbjLxFniSCo1o9cFx-117" target="uIdBbjLxFniSCo1o9cFx-124">
          <mxGeometry width="50" height="50" relative="1" as="geometry">
            <mxPoint x="132.32" y="145" as="sourcePoint" />
            <mxPoint x="32.31999999999999" y="345" as="targetPoint" />
          </mxGeometry>
        </mxCell>
        <mxCell id="uIdBbjLxFniSCo1o9cFx-122" value="" style="endArrow=none;html=1;rounded=0;exitX=0;exitY=0.5;exitDx=0;exitDy=0;entryX=0.5;entryY=0;entryDx=0;entryDy=0;" edge="1" parent="1" source="uIdBbjLxFniSCo1o9cFx-117" target="uIdBbjLxFniSCo1o9cFx-125">
          <mxGeometry width="50" height="50" relative="1" as="geometry">
            <mxPoint x="142.32" y="155" as="sourcePoint" />
            <mxPoint x="82.32" y="365" as="targetPoint" />
          </mxGeometry>
        </mxCell>
        <mxCell id="uIdBbjLxFniSCo1o9cFx-123" value="WHITE" style="rounded=0;whiteSpace=wrap;html=1;rotation=30;" vertex="1" parent="1">
          <mxGeometry x="-42.32" y="343.81" width="80" height="20" as="geometry" />
        </mxCell>
        <mxCell id="uIdBbjLxFniSCo1o9cFx-124" value="RED" style="rounded=0;whiteSpace=wrap;html=1;rotation=0;" vertex="1" parent="1">
          <mxGeometry x="70" y="363.81" width="80" height="20" as="geometry" />
        </mxCell>
        <mxCell id="uIdBbjLxFniSCo1o9cFx-125" value="ROSE" style="rounded=0;whiteSpace=wrap;html=1;rotation=-30;" vertex="1" parent="1">
          <mxGeometry x="170" y="339.47999999999996" width="80" height="20" as="geometry" />
        </mxCell>
        <mxCell id="uIdBbjLxFniSCo1o9cFx-133" value="view" style="rhombus;whiteSpace=wrap;html=1;rotation=-35;" vertex="1" parent="1">
          <mxGeometry x="740" y="260" width="80" height="79.48" as="geometry" />
        </mxCell>
        <mxCell id="uIdBbjLxFniSCo1o9cFx-137" value="age" style="ellipse;whiteSpace=wrap;html=1;" vertex="1" parent="1">
          <mxGeometry x="-190.00000000000003" y="50" width="70" height="40" as="geometry" />
        </mxCell>
        <mxCell id="uIdBbjLxFniSCo1o9cFx-138" value="" style="endArrow=none;html=1;rounded=0;exitX=0;exitY=0.5;exitDx=0;exitDy=0;entryX=1;entryY=0.5;entryDx=0;entryDy=0;" edge="1" parent="1" source="uIdBbjLxFniSCo1o9cFx-1" target="uIdBbjLxFniSCo1o9cFx-137">
          <mxGeometry width="50" height="50" relative="1" as="geometry">
            <mxPoint x="90" y="80" as="sourcePoint" />
            <mxPoint x="-50" y="100" as="targetPoint" />
          </mxGeometry>
        </mxCell>
        <mxCell id="uIdBbjLxFniSCo1o9cFx-140" value="location" style="ellipse;whiteSpace=wrap;html=1;" vertex="1" parent="1">
          <mxGeometry x="1035" y="210" width="70" height="40" as="geometry" />
        </mxCell>
        <mxCell id="uIdBbjLxFniSCo1o9cFx-141" value="" style="endArrow=none;html=1;rounded=0;entryX=0;entryY=0;entryDx=0;entryDy=0;exitX=0.75;exitY=1;exitDx=0;exitDy=0;" edge="1" parent="1" target="uIdBbjLxFniSCo1o9cFx-140" source="uIdBbjLxFniSCo1o9cFx-17">
          <mxGeometry width="50" height="50" relative="1" as="geometry">
            <mxPoint x="950" y="289.52" as="sourcePoint" />
            <mxPoint x="1230" y="550" as="targetPoint" />
          </mxGeometry>
        </mxCell>
        <mxCell id="uIdBbjLxFniSCo1o9cFx-142" value="street_name" style="ellipse;whiteSpace=wrap;html=1;" vertex="1" parent="1">
          <mxGeometry x="1150" y="239.99999999999997" width="85" height="40.52" as="geometry" />
        </mxCell>
        <mxCell id="uIdBbjLxFniSCo1o9cFx-143" value="" style="endArrow=none;html=1;rounded=0;entryX=0;entryY=0.5;entryDx=0;entryDy=0;exitX=0.5;exitY=1;exitDx=0;exitDy=0;" edge="1" parent="1" target="uIdBbjLxFniSCo1o9cFx-142" source="uIdBbjLxFniSCo1o9cFx-140">
          <mxGeometry width="50" height="50" relative="1" as="geometry">
            <mxPoint x="1100" y="264.59" as="sourcePoint" />
            <mxPoint x="850" y="689.4800000000001" as="targetPoint" />
          </mxGeometry>
        </mxCell>
        <mxCell id="uIdBbjLxFniSCo1o9cFx-144" value="suburb" style="ellipse;whiteSpace=wrap;html=1;" vertex="1" parent="1">
          <mxGeometry x="1130" y="293.25" width="70" height="40" as="geometry" />
        </mxCell>
        <mxCell id="uIdBbjLxFniSCo1o9cFx-145" value="" style="endArrow=none;html=1;rounded=0;entryX=0;entryY=0;entryDx=0;entryDy=0;exitX=0.5;exitY=1;exitDx=0;exitDy=0;" edge="1" parent="1" target="uIdBbjLxFniSCo1o9cFx-144" source="uIdBbjLxFniSCo1o9cFx-140">
          <mxGeometry width="50" height="50" relative="1" as="geometry">
            <mxPoint x="1100" y="264.59" as="sourcePoint" />
            <mxPoint x="1275" y="659.9600000000002" as="targetPoint" />
          </mxGeometry>
        </mxCell>
        <mxCell id="uIdBbjLxFniSCo1o9cFx-149" value="province" style="ellipse;whiteSpace=wrap;html=1;" vertex="1" parent="1">
          <mxGeometry x="1060" y="315.29999999999995" width="70" height="40" as="geometry" />
        </mxCell>
        <mxCell id="uIdBbjLxFniSCo1o9cFx-150" value="country" style="ellipse;whiteSpace=wrap;html=1;" vertex="1" parent="1">
          <mxGeometry x="975" y="305.29999999999995" width="70" height="40" as="geometry" />
        </mxCell>
        <mxCell id="uIdBbjLxFniSCo1o9cFx-151" value="" style="endArrow=none;html=1;rounded=0;entryX=0.5;entryY=0;entryDx=0;entryDy=0;exitX=0.5;exitY=1;exitDx=0;exitDy=0;" edge="1" parent="1" source="uIdBbjLxFniSCo1o9cFx-140" target="uIdBbjLxFniSCo1o9cFx-149">
          <mxGeometry width="50" height="50" relative="1" as="geometry">
            <mxPoint x="1100" y="264.59" as="sourcePoint" />
            <mxPoint x="1165" y="340.99999999999994" as="targetPoint" />
          </mxGeometry>
        </mxCell>
        <mxCell id="uIdBbjLxFniSCo1o9cFx-152" value="" style="endArrow=none;html=1;rounded=0;entryX=1;entryY=0;entryDx=0;entryDy=0;exitX=0.5;exitY=1;exitDx=0;exitDy=0;" edge="1" parent="1" source="uIdBbjLxFniSCo1o9cFx-140" target="uIdBbjLxFniSCo1o9cFx-150">
          <mxGeometry width="50" height="50" relative="1" as="geometry">
            <mxPoint x="1100" y="264.59" as="sourcePoint" />
            <mxPoint x="1175" y="350.99999999999994" as="targetPoint" />
          </mxGeometry>
        </mxCell>
        <mxCell id="uIdBbjLxFniSCo1o9cFx-153" value="street_name" style="ellipse;whiteSpace=wrap;html=1;" vertex="1" parent="1">
          <mxGeometry x="597.5" y="225.41000000000003" width="85" height="40.52" as="geometry" />
        </mxCell>
        <mxCell id="uIdBbjLxFniSCo1o9cFx-154" value="suburb" style="ellipse;whiteSpace=wrap;html=1;" vertex="1" parent="1">
          <mxGeometry x="527.5" y="194.07000000000005" width="70" height="40" as="geometry" />
        </mxCell>
        <mxCell id="uIdBbjLxFniSCo1o9cFx-155" value="province" style="ellipse;whiteSpace=wrap;html=1;" vertex="1" parent="1">
          <mxGeometry x="447.5" y="194.07" width="70" height="40" as="geometry" />
        </mxCell>
        <mxCell id="uIdBbjLxFniSCo1o9cFx-156" value="country" style="ellipse;whiteSpace=wrap;html=1;" vertex="1" parent="1">
          <mxGeometry x="377.5" y="225.92999999999998" width="70" height="40" as="geometry" />
        </mxCell>
        <mxCell id="uIdBbjLxFniSCo1o9cFx-157" value="" style="endArrow=none;html=1;rounded=0;entryX=1;entryY=1;entryDx=0;entryDy=0;exitX=0.5;exitY=0;exitDx=0;exitDy=0;" edge="1" parent="1" source="uIdBbjLxFniSCo1o9cFx-46" target="uIdBbjLxFniSCo1o9cFx-156">
          <mxGeometry width="50" height="50" relative="1" as="geometry">
            <mxPoint x="537.5" y="390.34" as="sourcePoint" />
            <mxPoint x="537.5" y="325.34" as="targetPoint" />
          </mxGeometry>
        </mxCell>
        <mxCell id="uIdBbjLxFniSCo1o9cFx-158" value="" style="endArrow=none;html=1;rounded=0;entryX=0.5;entryY=1;entryDx=0;entryDy=0;exitX=0.5;exitY=0;exitDx=0;exitDy=0;" edge="1" parent="1" source="uIdBbjLxFniSCo1o9cFx-46" target="uIdBbjLxFniSCo1o9cFx-155">
          <mxGeometry width="50" height="50" relative="1" as="geometry">
            <mxPoint x="547.5" y="400.34" as="sourcePoint" />
            <mxPoint x="547.5" y="335.34" as="targetPoint" />
          </mxGeometry>
        </mxCell>
        <mxCell id="uIdBbjLxFniSCo1o9cFx-159" value="" style="endArrow=none;html=1;rounded=0;entryX=0.5;entryY=1;entryDx=0;entryDy=0;exitX=0.5;exitY=0;exitDx=0;exitDy=0;" edge="1" parent="1" source="uIdBbjLxFniSCo1o9cFx-46" target="uIdBbjLxFniSCo1o9cFx-154">
          <mxGeometry width="50" height="50" relative="1" as="geometry">
            <mxPoint x="557.5" y="410.34" as="sourcePoint" />
            <mxPoint x="557.5" y="345.34" as="targetPoint" />
          </mxGeometry>
        </mxCell>
        <mxCell id="uIdBbjLxFniSCo1o9cFx-160" value="" style="endArrow=none;html=1;rounded=0;entryX=0;entryY=1;entryDx=0;entryDy=0;exitX=0.5;exitY=0;exitDx=0;exitDy=0;" edge="1" parent="1" source="uIdBbjLxFniSCo1o9cFx-46" target="uIdBbjLxFniSCo1o9cFx-153">
          <mxGeometry width="50" height="50" relative="1" as="geometry">
            <mxPoint x="567.5" y="420.34" as="sourcePoint" />
            <mxPoint x="567.5" y="355.34" as="targetPoint" />
          </mxGeometry>
        </mxCell>
        <mxCell id="uIdBbjLxFniSCo1o9cFx-162" value="house_number" style="ellipse;whiteSpace=wrap;html=1;" vertex="1" parent="1">
          <mxGeometry x="910" y="252.73" width="97.5" height="40.52" as="geometry" />
        </mxCell>
        <mxCell id="uIdBbjLxFniSCo1o9cFx-163" value="" style="endArrow=none;html=1;rounded=0;entryX=1;entryY=0.5;entryDx=0;entryDy=0;exitX=0.5;exitY=1;exitDx=0;exitDy=0;" edge="1" parent="1" target="uIdBbjLxFniSCo1o9cFx-162" source="uIdBbjLxFniSCo1o9cFx-140">
          <mxGeometry width="50" height="50" relative="1" as="geometry">
            <mxPoint x="1100" y="264.59" as="sourcePoint" />
            <mxPoint x="605" y="663.5500000000002" as="targetPoint" />
          </mxGeometry>
        </mxCell>
        <mxCell id="uIdBbjLxFniSCo1o9cFx-165" value="classification" style="ellipse;whiteSpace=wrap;html=1;" vertex="1" parent="1">
          <mxGeometry x="151.16" y="-15" width="98.84" height="40" as="geometry" />
        </mxCell>
        <mxCell id="uIdBbjLxFniSCo1o9cFx-166" value="" style="endArrow=none;html=1;rounded=0;entryX=0;entryY=1;entryDx=0;entryDy=0;exitX=0.5;exitY=0;exitDx=0;exitDy=0;" edge="1" parent="1" target="uIdBbjLxFniSCo1o9cFx-165" source="uIdBbjLxFniSCo1o9cFx-1">
          <mxGeometry width="50" height="50" relative="1" as="geometry">
            <mxPoint x="131.16" y="95" as="sourcePoint" />
            <mxPoint x="211.41126265847097" y="39.14213562373084" as="targetPoint" />
          </mxGeometry>
        </mxCell>
        <mxCell id="uIdBbjLxFniSCo1o9cFx-167" value="country of origin" style="ellipse;whiteSpace=wrap;html=1;" vertex="1" parent="1">
          <mxGeometry x="-122.32" y="201.86" width="80" height="44.07" as="geometry" />
        </mxCell>
        <mxCell id="uIdBbjLxFniSCo1o9cFx-168" value="" style="endArrow=none;html=1;rounded=0;exitX=0;exitY=0.5;exitDx=0;exitDy=0;entryX=1;entryY=0;entryDx=0;entryDy=0;" edge="1" parent="1" target="uIdBbjLxFniSCo1o9cFx-167" source="uIdBbjLxFniSCo1o9cFx-1">
          <mxGeometry width="50" height="50" relative="1" as="geometry">
            <mxPoint x="30" y="200" as="sourcePoint" />
            <mxPoint x="-40" y="220" as="targetPoint" />
          </mxGeometry>
        </mxCell>
        <mxCell id="uIdBbjLxFniSCo1o9cFx-169" value="price" style="ellipse;whiteSpace=wrap;html=1;" vertex="1" parent="1">
          <mxGeometry x="-180.00000000000003" y="160" width="70" height="40" as="geometry" />
        </mxCell>
        <mxCell id="uIdBbjLxFniSCo1o9cFx-170" value="" style="endArrow=none;html=1;rounded=0;exitX=0;exitY=0.5;exitDx=0;exitDy=0;entryX=1;entryY=0;entryDx=0;entryDy=0;" edge="1" parent="1" target="uIdBbjLxFniSCo1o9cFx-169" source="uIdBbjLxFniSCo1o9cFx-1">
          <mxGeometry width="50" height="50" relative="1" as="geometry">
            <mxPoint x="30" y="200" as="sourcePoint" />
            <mxPoint x="-40" y="210" as="targetPoint" />
          </mxGeometry>
        </mxCell>
        <mxCell id="uIdBbjLxFniSCo1o9cFx-171" value="alcohol %" style="ellipse;whiteSpace=wrap;html=1;" vertex="1" parent="1">
          <mxGeometry x="-172.32" width="70" height="40" as="geometry" />
        </mxCell>
        <mxCell id="uIdBbjLxFniSCo1o9cFx-172" value="" style="endArrow=none;html=1;rounded=0;exitX=0;exitY=0.5;exitDx=0;exitDy=0;entryX=1;entryY=1;entryDx=0;entryDy=0;" edge="1" parent="1" target="uIdBbjLxFniSCo1o9cFx-171" source="uIdBbjLxFniSCo1o9cFx-1">
          <mxGeometry width="50" height="50" relative="1" as="geometry">
            <mxPoint x="37.68" y="40" as="sourcePoint" />
            <mxPoint x="-32.32" y="50" as="targetPoint" />
          </mxGeometry>
        </mxCell>
      </root>
    </mxGraphModel>
  </diagram>
</mxfile>
